<svg width="25" height="25" viewBox="0 0 25 25" fill="none" xmlns="http://www.w3.org/2000/svg">
<path d="M0 12.5752C0.00145438 18.7623 4.47285 24.0303 10.5459 25V16.21H7.37474V12.5752H10.5496V9.8083C10.4077 8.4972 10.8528 7.19052 11.7641 6.24264C12.6755 5.29477 13.9587 4.80394 15.2657 4.90328C16.2039 4.91853 17.1396 5.0026 18.0656 5.15482V8.2475H16.4857C15.9418 8.17581 15.3949 8.35657 14.9992 8.73884C14.6035 9.12111 14.4017 9.66352 14.4507 10.2133V12.5752H17.9144L17.3606 16.2112H14.4507V25C21.0186 23.9556 25.6242 17.9202 24.931 11.2661C24.2378 4.61196 18.4885 -0.331333 11.8481 0.0173622C5.20777 0.366057 0.00105556 5.88467 0 12.5752Z" fill="#121212"/>
</svg>
