<svg width="22" height="27" viewBox="0 0 22 27" fill="none" xmlns="http://www.w3.org/2000/svg">
<path d="M1 10.9998C1 6.28616 1 3.9287 2.46497 2.46497C3.9287 1 6.28616 1 10.9998 1C15.7135 1 18.0709 1 19.5347 2.46497C20.9996 3.9287 20.9996 6.28616 20.9996 10.9998V14.7498C20.9996 19.4634 20.9996 21.8209 19.5347 23.2846C18.0709 24.7496 15.7135 24.7496 10.9998 24.7496C6.28616 24.7496 3.9287 24.7496 2.46497 23.2846C1 21.8209 1 19.4634 1 14.7498V10.9998Z" stroke="#121212" stroke-width="1.5"/>
<path d="M17.2494 24.7502V26.0002H15.9994V24.7502M5.99955 24.7502V26.0002H4.74957V24.7502" stroke="#121212" stroke-width="1.5" stroke-linejoin="round"/>
<path d="M20.9996 12.875H1" stroke="#121212" stroke-width="1.5"/>
<path d="M17.2493 7.25V9.74996M17.2493 15.9998V18.4998" stroke="#121212" stroke-width="1.5" stroke-linecap="round"/>
</svg>
