<svg width="27" height="27" viewBox="0 0 27 27" fill="none" xmlns="http://www.w3.org/2000/svg">
<path d="M24.125 1H2.875C2.37772 1 1.90081 1.19754 1.54917 1.54917C1.19754 1.90081 1 2.37772 1 2.875V24.125C1 24.6223 1.19754 25.0992 1.54917 25.4508C1.90081 25.8025 2.37772 26 2.875 26H24.125C24.6223 26 25.0992 25.8025 25.4508 25.4508C25.8025 25.0992 26 24.6223 26 24.125V2.875C26 2.37772 25.8025 1.90081 25.4508 1.54917C25.0992 1.19754 24.6223 1 24.125 1Z" stroke="#121212" stroke-width="1.5" stroke-linejoin="round"/>
<path d="M5.99976 10.4099C8.07788 7.90991 10.5779 6.65991 13.4998 6.65991C16.4216 6.65991 18.9216 7.90991 20.9998 10.4099" stroke="#121212" stroke-width="1.5" stroke-linecap="round"/>
<path d="M13.5002 17.8745C13.9975 17.8745 14.4744 17.677 14.8261 17.3253C15.1777 16.9737 15.3752 16.4968 15.3752 15.9995C15.3752 15.5022 15.1777 15.0253 14.8261 14.6737C14.4744 14.3221 13.9975 14.1245 13.5002 14.1245C13.003 14.1245 12.526 14.3221 12.1744 14.6737C11.8228 15.0253 11.6252 15.5022 11.6252 15.9995C11.6252 16.4968 11.8228 16.9737 12.1744 17.3253C12.526 17.677 13.003 17.8745 13.5002 17.8745Z" fill="#121212"/>
<path d="M10.375 11.6243L13.505 15.9993" stroke="#121212" stroke-width="1.5" stroke-linecap="round"/>
</svg>
