<svg width="33" height="25" viewBox="0 0 33 25" fill="none" xmlns="http://www.w3.org/2000/svg">
<path d="M5.13558 15.3211C4.17009 15.3211 3.3581 14.9919 2.6996 14.3334C2.04111 13.6749 1.71186 12.8629 1.71186 11.8974V6.16954H22.2645C22.2964 5.3159 22.5663 4.54556 23.0742 3.85853C23.582 3.17151 24.2479 2.69333 25.0719 2.42399L32.2651 0L32.8095 1.60744L25.6146 4.02972C25.1261 4.19291 24.7295 4.48793 24.4248 4.91475C24.119 5.34043 23.966 5.81804 23.966 6.34758V11.8974C23.966 12.8481 23.6368 13.6566 22.9783 14.3231C22.3198 14.9885 21.5078 15.3211 20.5423 15.3211H5.13558ZM5.13558 13.6093H20.5423C21.0273 13.6093 21.4342 13.4455 21.7629 13.118C22.0916 12.7904 22.2553 12.3836 22.2542 11.8974V7.8814H3.42372V11.8974C3.42372 12.3825 3.58806 12.7893 3.91674 13.118C4.24541 13.4467 4.65169 13.6104 5.13558 13.6093ZM11.983 25V21.1141C11.983 20.8082 11.8843 20.5566 11.6869 20.3591C11.4894 20.1606 11.2372 20.0613 10.9302 20.0613H0V18.3494H10.9302C11.6903 18.3494 12.3408 18.6205 12.8817 19.1626C13.4227 19.7046 13.6937 20.3552 13.6949 21.1141V25H11.983ZM17.1186 25V21.1141C17.1186 20.3552 17.3896 19.7046 17.9317 19.1626C18.4738 18.6205 19.1243 18.3494 19.8833 18.3494H30.8135V20.0613H19.885C19.5768 20.0613 19.324 20.1606 19.1266 20.3591C18.9292 20.5554 18.8305 20.8077 18.8305 21.1158V25H17.1186Z" fill="#121212"/>
</svg>
